<?xml version="1.0" encoding="utf-8"?>
<!-- Generator: Adobe Illustrator 21.1.0, SVG Export Plug-In . SVG Version: 6.00 Build 0)  -->
<svg version="1.1" id="Layer_1" xmlns="http://www.w3.org/2000/svg" xmlns:xlink="http://www.w3.org/1999/xlink" x="0px" y="0px"
	 viewBox="0 0 459 459" style="enable-background:new 0 0 459 459;" xml:space="preserve">
<style type="text/css">
	.st0{fill:#004BE4;}
</style>
<g id="Layer_0">
	<path class="st0" d="M0,229.5C0,356.2,102.8,459,229.5,459C356.2,459,459,356.2,459,229.5C459,102.8,356.2,0,229.5,0
		C102.8,0,0,102.8,0,229.5z M250.6,234.7c0,6-1.5,10.6-4.5,13.8c-3,3.2-7.4,4.8-13.1,4.8c-5.6,0-10.4-1.1-14.3-3.3v-11.8
		c4.8,3.1,9.2,4.7,13.2,4.7c2.3,0,4-0.6,5.2-1.9c1.2-1.3,1.7-3,1.7-5.1c0-2.1-0.7-4.1-2.1-5.9c-1.4-1.8-3.6-3.7-6.8-5.9
		c-2.8-1.9-4.8-3.7-6.3-5.5c-1.4-1.7-2.5-3.7-3.3-5.9c-0.8-2.2-1.2-4.7-1.2-7.6c0-5.5,1.5-9.9,4.6-13.1c3.1-3.2,7.2-4.8,12.3-4.8
		c4.9,0,9.7,1.4,14.2,4.1l-4,9.6c-1.4-0.8-2.9-1.6-4.4-2.2c-1.5-0.6-3.2-1-4.9-1c-1.9,0-3.4,0.6-4.5,1.9c-1,1.3-1.6,3-1.6,5.2
		c0,2.2,0.6,4.1,1.9,5.7c1.2,1.6,3.4,3.4,6.5,5.5c4.2,2.8,7.1,5.7,8.8,8.6C249.8,227.6,250.6,231,250.6,234.7 M293.5,208
		c0,6.8-1.7,12.1-5.2,15.7c-3.4,3.6-8.4,5.5-14.9,5.5h-3v23.3h-12v-64.2h16.3C287.3,188.2,293.5,194.8,293.5,208 M270.4,198.5v20.3
		h2.3c2.9,0,5.1-0.8,6.5-2.4c1.4-1.6,2.2-4.2,2.2-7.9c0-3.4-0.7-5.9-2-7.5c-1.3-1.6-3.4-2.4-6.1-2.4H270.4 M344,252.4h-12l-3.7-16.2
		h-16.7l-3.7,16.2h-12l15.9-64.5h16.2L344,252.4 M314,225.6h12.1l-3.4-14.9c-0.2-0.9-0.7-3.2-1.4-6.8c-0.7-3.6-1.2-6.1-1.3-7.3
		c-0.4,2.5-0.9,5.3-1.4,8.3C317.9,207.9,316.4,214.8,314,225.6 M371,197.7c-3.4,0-6.1,2-8.1,6c-2,4-3,9.6-3,16.7
		c0,14.9,3.9,22.3,11.6,22.3c3.4,0,7-1.1,10.7-3.3v10.6c-3.1,2.1-7.1,3.1-12,3.1c-7.2,0-12.8-2.9-16.7-8.6
		c-3.9-5.8-5.8-13.9-5.8-24.3c0-10.4,2-18.6,6-24.4c4-5.8,9.6-8.7,16.7-8.7c2.3,0,4.6,0.3,6.7,1c2.2,0.6,4.5,1.8,6.9,3.4l-4,9.7
		c-1.3-0.9-2.7-1.7-4.2-2.5C374.4,198.1,372.8,197.7,371,197.7 M420.3,242v10.5h-29v-64.2h29v10.3h-17v15.3h15.8v10.4h-15.8V242
		H420.3 M67.9,234.7c0,6-1.5,10.6-4.5,13.8c-3,3.2-7.4,4.8-13.1,4.8c-5.6,0-10.4-1.1-14.3-3.3v-11.8c4.8,3.1,9.2,4.7,13.2,4.7
		c2.3,0,4-0.6,5.2-1.9c1.2-1.3,1.7-3,1.7-5.1c0-2.1-0.7-4.1-2.1-5.9c-1.4-1.8-3.6-3.7-6.8-5.9c-2.8-1.9-4.8-3.7-6.3-5.5
		c-1.4-1.7-2.5-3.7-3.3-5.9c-0.8-2.2-1.2-4.7-1.2-7.6c0-5.5,1.5-9.9,4.6-13.1c3.1-3.2,7.2-4.8,12.3-4.8c4.9,0,9.7,1.4,14.2,4.1
		l-4,9.6c-1.4-0.8-2.9-1.6-4.4-2.2c-1.5-0.6-3.2-1-4.9-1c-1.9,0-3.4,0.6-4.5,1.9c-1,1.3-1.6,3-1.6,5.2c0,2.2,0.6,4.1,1.9,5.7
		c1.2,1.6,3.4,3.4,6.5,5.5c4.2,2.8,7.1,5.7,8.8,8.6C67.1,227.6,67.9,231,67.9,234.7 M118.3,252.4h-12l-3.7-16.2H85.8l-3.7,16.2h-12
		l15.9-64.5h16.2L118.3,252.4 M88.2,225.6h12.1l-3.4-14.9c-0.2-0.9-0.7-3.2-1.4-6.8c-0.7-3.6-1.2-6.1-1.3-7.3
		c-0.4,2.5-0.9,5.3-1.4,8.3C92.2,207.9,90.7,214.8,88.2,225.6 M135.8,226.7v25.8h-11.9v-64.2h28.8v10.3h-16.9v17.8h15.8v10.3H135.8
		 M189.7,242v10.5h-29v-64.2h29v10.3h-17v15.3h15.8v10.4h-15.8V242H189.7z"/>
</g>
</svg>
