<?xml version="1.0" standalone="no"?><!-- Generator: Gravit.io --><svg xmlns="http://www.w3.org/2000/svg" xmlns:xlink="http://www.w3.org/1999/xlink" style="isolation:isolate" viewBox="0 0 500 500" width="500" height="500"><defs><clipPath id="_clipPath_oAnEhA6smiK1mTb7F90liHDe7IbB7TFc"><rect width="500" height="500"/></clipPath></defs><g clip-path="url(#_clipPath_oAnEhA6smiK1mTb7F90liHDe7IbB7TFc)"><g opacity="0.8"><path d=" M 20.5 250 C 20.5 376.664 123.336 479.5 250 479.5 C 376.664 479.5 479.5 376.664 479.5 250 C 479.5 123.336 376.664 20.5 250 20.5 C 123.336 20.5 20.5 123.336 20.5 250 Z  M 271.084 255.225 Q 271.084 264.234 266.536 269.024 Q 261.987 273.814 253.418 273.814 Q 245.024 273.814 239.136 270.518 L 239.136 258.697 Q 246.343 263.399 252.363 263.399 Q 255.791 263.399 257.527 261.509 Q 259.263 259.619 259.263 256.367 Q 259.263 253.159 257.197 250.501 Q 255.132 247.842 250.386 244.59 Q 246.255 241.734 244.123 239.119 Q 241.992 236.504 240.827 233.252 Q 239.663 230 239.663 225.694 Q 239.663 217.432 244.255 212.598 Q 248.848 207.764 256.582 207.764 Q 263.965 207.764 270.776 211.895 L 266.821 221.475 Q 264.712 220.244 262.405 219.278 Q 260.098 218.311 257.461 218.311 Q 254.56 218.311 253 220.222 Q 251.44 222.134 251.44 225.43 Q 251.44 228.682 253.308 231.099 Q 255.176 233.516 259.834 236.592 Q 266.118 240.811 268.601 245.205 Q 271.084 249.6 271.084 255.225 M 314.018 228.462 Q 314.018 238.701 308.855 244.173 Q 303.691 249.644 293.935 249.644 L 290.947 249.644 L 290.947 272.935 L 278.994 272.935 L 278.994 208.687 L 295.298 208.687 Q 314.018 208.687 314.018 228.462 M 290.947 219.014 L 290.947 239.273 L 293.232 239.273 Q 297.627 239.273 299.78 236.856 Q 301.933 234.439 301.933 228.946 Q 301.933 223.892 299.956 221.453 Q 297.978 219.014 293.848 219.014 L 290.947 219.014 M 364.512 272.935 L 352.515 272.935 L 348.823 256.719 L 332.08 256.719 L 328.389 272.935 L 316.435 272.935 L 332.344 208.423 L 348.559 208.423 L 364.512 272.935 M 334.453 246.128 L 346.582 246.128 L 343.154 231.187 Q 342.847 229.825 341.77 224.353 Q 340.693 218.882 340.473 217.036 Q 339.902 220.816 339.023 225.364 Q 338.144 229.912 334.453 246.128 M 391.494 218.223 Q 386.352 218.223 383.386 224.243 Q 380.42 230.264 380.42 240.987 Q 380.42 263.311 392.065 263.311 Q 397.163 263.311 402.744 260.059 L 402.744 270.694 Q 398.042 273.814 390.703 273.814 Q 379.848 273.814 374.026 265.179 Q 368.203 256.543 368.203 240.899 Q 368.203 225.254 374.202 216.509 Q 380.2 207.764 390.879 207.764 Q 394.394 207.764 397.624 208.731 Q 400.854 209.698 404.546 212.115 L 400.591 221.826 Q 398.613 220.464 396.372 219.344 Q 394.131 218.223 391.494 218.223 M 440.801 262.476 L 440.801 272.935 L 411.841 272.935 L 411.841 208.687 L 440.801 208.687 L 440.801 219.014 L 423.794 219.014 L 423.794 234.307 L 439.57 234.307 L 439.57 244.678 L 423.794 244.678 L 423.794 262.476 L 440.801 262.476 M 88.447 255.225 Q 88.447 264.234 83.899 269.024 Q 79.351 273.814 70.781 273.814 Q 62.388 273.814 56.499 270.518 L 56.499 258.697 Q 63.706 263.399 69.726 263.399 Q 73.154 263.399 74.89 261.509 Q 76.626 259.619 76.626 256.367 Q 76.626 253.159 74.56 250.501 Q 72.495 247.842 67.749 244.59 Q 63.618 241.734 61.487 239.119 Q 59.355 236.504 58.191 233.252 Q 57.026 230 57.026 225.694 Q 57.026 217.432 61.619 212.598 Q 66.211 207.764 73.945 207.764 Q 81.328 207.764 88.14 211.895 L 84.184 221.475 Q 82.075 220.244 79.768 219.278 Q 77.461 218.311 74.824 218.311 Q 71.924 218.311 70.364 220.222 Q 68.804 222.134 68.804 225.43 Q 68.804 228.682 70.671 231.099 Q 72.539 233.516 77.197 236.592 Q 83.481 240.811 85.964 245.205 Q 88.447 249.6 88.447 255.225 M 138.765 272.935 L 126.767 272.935 L 123.076 256.719 L 106.333 256.719 L 102.642 272.935 L 90.688 272.935 L 106.597 208.423 L 122.812 208.423 L 138.765 272.935 M 108.706 246.128 L 120.835 246.128 L 117.407 231.187 Q 117.1 229.825 116.023 224.353 Q 114.946 218.882 114.726 217.036 Q 114.155 220.816 113.276 225.364 Q 112.397 229.912 108.706 246.128 M 156.299 247.183 L 156.299 272.935 L 144.433 272.935 L 144.433 208.687 L 173.218 208.687 L 173.218 219.014 L 156.299 219.014 L 156.299 236.856 L 172.075 236.856 L 172.075 247.183 L 156.299 247.183 M 210.22 262.476 L 210.22 272.935 L 181.26 272.935 L 181.26 208.687 L 210.22 208.687 L 210.22 219.014 L 193.213 219.014 L 193.213 234.307 L 208.989 234.307 L 208.989 244.678 L 193.213 244.678 L 193.213 262.476 L 210.22 262.476 M 271.084 255.225 Z " fill="rgb(177,206,204)"/></g></g></svg>